<svg width="24" height="24" fill="none" xmlns="http://www.w3.org/2000/svg"><path fill-rule="evenodd" clip-rule="evenodd" d="M18.735 5.275c.92-.182 2.485-.813 3.265-1.276-.301.944-1.486 2.136-2.32 2.636A8.07 8.07 0 0022 5.999a8.217 8.217 0 01-2.017 2.091c.003.066.006.193.009.329 0 .013.002.027.004.04a.18.18 0 01.002.066l-.003.027.005.447C20 14.337 15.777 20 8.347 20 6.065 20 3.788 19.145 2 17.999h.964c2.83 0 3.789-.402 5.171-1.486-1.767-.032-3.621-.934-4.135-2.539.246.046 1.166.165 1.426.165.369 0 1.125-.022 1.5-.243C5.078 13.525 3 12.192 3 10.234v-.051a2.686 2.686 0 001.759.617c.36 0 .706-.058 1.02-.139-1.705-.853-2.8-2.229-2.8-3.63 0-.742.087-1.532.286-2.032 1.83 2.244 4.382 4 7.735 4a4.04 4.04 0 01-.002-.354v-.02L11 8.498a4.5 4.5 0 017.66-3.201.63.63 0 01.075-.023z" fill="#310A90"/></svg>