<svg width="24" height="24" fill="none" xmlns="http://www.w3.org/2000/svg"><path fill-rule="evenodd" clip-rule="evenodd" d="M2.1 10.8c.5-4.5 4.2-8.2 8.8-8.7 6-.7 11.1 4 11.1 10 0 4.2-2.6 7.8-6.3 9.3-.4.1-.7-.2-.7-.5v-2.6c0-.9-.4-1.8-1-2.3 2.3-.5 4-1.8 4-4 0-1.2-.5-2.2-1.2-3 .1-.2.2-.6.2-1.4 0-.4 0-1-.2-1.6 0 0-1.5 0-2.8 1.3-.6-.2-1.3-.3-2-.3s-1.4.1-1.9.3C8.7 6 7.3 6 7.3 6 7 6.6 7 7.2 7 7.6c0 .7.1 1.2.2 1.4-.7.8-1.2 1.9-1.2 3 0 2.2 1.7 3.5 4 4-.6.4-.9 1.1-1 1.8-.2.1-.5.2-.9.2-.3 0-.9-.2-1.4-1-.2-.3-.7-1-1.3-1-.1 0-.4 0-.4.2 0 .077.059.095.222.144l.178.056c.3.3.5.6.6 1 .1.7.7 1.9 2.1 1.9.5 0 .9-.1.9-.1v1.6c0 .4-.3.6-.6.5-4.1-1.6-6.8-5.8-6.3-10.5z" fill="#310A90"/></svg>