<svg width="24" height="24" fill="none" xmlns="http://www.w3.org/2000/svg"><path fill-rule="evenodd" clip-rule="evenodd" d="M18.099 15.348c.501.088 1.294.125 1.924.14A1 1 0 0121 16.49V20c0 .438-.328 1-1 1-4.539 0-8.874-1.84-12.034-4.966C4.84 12.874 3 8.539 3 4c0-.672.562-1 1-1h3.51a1 1 0 011.002.977c.016.63.052 1.423.141 1.924.095.542.282 1.194.424 1.652.112.36.013.752-.253 1.019L6.62 10.79a15.376 15.376 0 002.792 3.798 15.376 15.376 0 003.798 2.792l2.217-2.204a1.017 1.017 0 011.019-.253 14.67 14.67 0 001.653.425z" fill="#310A90"/></svg>